<?xml version="1.0" encoding="utf-8" standalone="no"?>
<!DOCTYPE svg PUBLIC "-//W3C//DTD SVG 1.1//EN"
  "http://www.w3.org/Graphics/SVG/1.1/DTD/svg11.dtd">
<svg xmlns:xlink="http://www.w3.org/1999/xlink" width="126pt" height="125.28pt" viewBox="0 0 126 125.28" xmlns="http://www.w3.org/2000/svg" version="1.1">
 <metadata>
  <rdf:RDF xmlns:dc="http://purl.org/dc/elements/1.1/" xmlns:cc="http://creativecommons.org/ns#" xmlns:rdf="http://www.w3.org/1999/02/22-rdf-syntax-ns#">
   <cc:Work>
    <dc:type rdf:resource="http://purl.org/dc/dcmitype/StillImage"/>
    <dc:date>2024-05-31T20:48:44.025521</dc:date>
    <dc:format>image/svg+xml</dc:format>
    <dc:creator>
     <cc:Agent>
      <dc:title>Matplotlib v3.8.2, https://matplotlib.org/</dc:title>
     </cc:Agent>
    </dc:creator>
   </cc:Work>
  </rdf:RDF>
 </metadata>
 <defs>
  <style type="text/css">*{stroke-linejoin: round; stroke-linecap: butt}</style>
 </defs>
 <g id="figure_1">
  <g id="patch_1">
   <path d="M 0 125.28 
L 126 125.28 
L 126 0 
L 0 0 
L 0 125.28 
z
" style="fill: none"/>
  </g>
  <g id="axes_1">
   <g id="line2d_1">
    <path d="M 12.272727 12.24 
L 17.61244 15.156983 
L 22.952153 18.073966 
L 28.291866 20.99095 
L 33.631579 23.907933 
L 38.971292 26.824916 
L 44.311005 29.741899 
L 49.650718 32.658882 
L 54.990431 35.575865 
L 60.330144 38.492849 
L 65.669856 41.409832 
L 71.009569 44.326815 
L 76.349282 47.243798 
L 81.688995 50.160781 
L 87.028708 53.077765 
L 92.368421 55.994748 
L 97.708134 58.911731 
L 103.047847 61.828714 
L 108.38756 64.745697 
L 113.727273 67.66268 
" clip-path="url(#p27c7994a6a)" style="fill: none; stroke-dasharray: 24.666667,10.666667; stroke-dashoffset: 0; stroke: #4169e1; stroke-width: 6.666667"/>
   </g>
   <g id="line2d_2">
    <path d="M 12.272727 43.761649 
L 13.297521 43.076005 
L 14.322314 42.418635 
L 15.347107 41.789538 
L 16.371901 41.188716 
L 17.396694 40.616168 
L 18.421488 40.071893 
L 19.446281 39.555893 
L 20.471074 39.068167 
L 21.495868 38.608714 
L 22.520661 38.177536 
L 23.545455 37.774632 
L 24.570248 37.400001 
L 25.595041 37.053645 
L 26.619835 36.735562 
L 27.644628 36.445754 
L 28.669421 36.184219 
L 29.694215 35.950959 
L 30.719008 35.745973 
L 31.743802 35.56926 
L 32.768595 35.420822 
L 33.793388 35.300657 
L 34.818182 35.208767 
L 35.842975 35.14515 
L 36.867769 35.109808 
L 37.892562 35.102739 
L 38.917355 35.123945 
L 39.942149 35.173424 
L 40.966942 35.251178 
L 41.991736 35.357205 
L 43.016529 35.491507 
L 44.041322 35.654082 
L 45.066116 35.844932 
L 46.090909 36.064055 
L 47.115702 36.311452 
L 48.140496 36.587124 
L 49.165289 36.891069 
L 50.190083 37.223289 
L 51.214876 37.583782 
L 52.239669 37.972549 
L 53.264463 38.389591 
L 54.289256 38.834906 
L 55.31405 39.308496 
L 56.338843 39.810359 
L 57.363636 40.340496 
L 58.38843 40.898908 
L 59.413223 41.485593 
L 60.438017 42.100552 
L 61.46281 42.743786 
L 62.487603 43.415293 
L 63.512397 44.115074 
L 64.53719 44.84313 
L 65.561983 45.599459 
L 66.586777 46.384062 
L 67.61157 47.19694 
L 68.636364 48.038091 
L 69.661157 48.907516 
L 70.68595 49.805215 
L 71.710744 50.731189 
L 72.735537 51.685436 
L 73.760331 52.667957 
L 74.785124 53.678752 
L 75.809917 54.717822 
L 76.834711 55.785165 
L 77.859504 56.880782 
L 78.884298 58.004673 
L 79.909091 59.156838 
L 80.933884 60.337278 
L 81.958678 61.545991 
L 82.983471 62.782978 
L 84.008264 64.048239 
L 85.033058 65.341774 
L 86.057851 66.663584 
L 87.082645 68.013667 
L 88.107438 69.392024 
L 89.132231 70.798655 
L 90.157025 72.23356 
L 91.181818 73.696739 
L 92.206612 75.188192 
L 93.231405 76.707919 
L 94.256198 78.255921 
L 95.280992 79.832196 
L 96.305785 81.436745 
L 97.330579 83.069568 
L 98.355372 84.730665 
L 99.380165 86.420036 
L 100.404959 88.137681 
L 101.429752 89.8836 
L 102.454545 91.657793 
L 103.479339 93.46026 
L 104.504132 95.291001 
L 105.528926 97.150016 
L 106.553719 99.037305 
L 107.578512 100.952868 
L 108.603306 102.896705 
L 109.628099 104.868816 
L 110.652893 106.869201 
L 111.677686 108.89786 
L 112.702479 110.954793 
L 113.727273 113.04 
" clip-path="url(#p27c7994a6a)" style="fill: none; stroke: #4169e1; stroke-width: 10; stroke-linecap: square"/>
   </g>
  </g>
 </g>
 <defs>
  <clipPath id="p27c7994a6a">
   <rect x="7.2" y="7.2" width="111.6" height="110.88"/>
  </clipPath>
 </defs>
</svg>
