<?xml version="1.0" encoding="utf-8" standalone="no"?>
<!DOCTYPE svg PUBLIC "-//W3C//DTD SVG 1.1//EN"
  "http://www.w3.org/Graphics/SVG/1.1/DTD/svg11.dtd">
<svg xmlns:xlink="http://www.w3.org/1999/xlink" width="237.6pt" height="125.28pt" viewBox="0 0 237.6 125.28" xmlns="http://www.w3.org/2000/svg" version="1.1">
 <metadata>
  <rdf:RDF xmlns:dc="http://purl.org/dc/elements/1.1/" xmlns:cc="http://creativecommons.org/ns#" xmlns:rdf="http://www.w3.org/1999/02/22-rdf-syntax-ns#">
   <cc:Work>
    <dc:type rdf:resource="http://purl.org/dc/dcmitype/StillImage"/>
    <dc:date>2024-05-31T20:48:43.990523</dc:date>
    <dc:format>image/svg+xml</dc:format>
    <dc:creator>
     <cc:Agent>
      <dc:title>Matplotlib v3.8.2, https://matplotlib.org/</dc:title>
     </cc:Agent>
    </dc:creator>
   </cc:Work>
  </rdf:RDF>
 </metadata>
 <defs>
  <style type="text/css">*{stroke-linejoin: round; stroke-linecap: butt}</style>
 </defs>
 <g id="figure_1">
  <g id="patch_1">
   <path d="M 0 125.28 
L 237.6 125.28 
L 237.6 0 
L 0 0 
L 0 125.28 
z
" style="fill: none"/>
  </g>
  <g id="axes_1">
   <g id="line2d_1">
    <path d="M 17.345455 12.24 
L 28.02488 15.156983 
L 38.704306 18.073966 
L 49.383732 20.99095 
L 60.063158 23.907933 
L 70.742584 26.824916 
L 81.42201 29.741899 
L 92.101435 32.658882 
L 102.780861 35.575865 
L 113.460287 38.492849 
L 124.139713 41.409832 
L 134.819139 44.326815 
L 145.498565 47.243798 
L 156.17799 50.160781 
L 166.857416 53.077765 
L 177.536842 55.994748 
L 188.216268 58.911731 
L 198.895694 61.828714 
L 209.57512 64.745697 
L 220.254545 67.66268 
" clip-path="url(#p90661e30ff)" style="fill: none; stroke-dasharray: 24.666667,10.666667; stroke-dashoffset: 0; stroke: #4169e1; stroke-width: 6.666667"/>
   </g>
   <g id="line2d_2">
    <path d="M 17.345455 43.761649 
L 19.395041 43.076005 
L 21.444628 42.418635 
L 23.494215 41.789538 
L 25.543802 41.188716 
L 27.593388 40.616168 
L 29.642975 40.071893 
L 31.692562 39.555893 
L 33.742149 39.068167 
L 35.791736 38.608714 
L 37.841322 38.177536 
L 39.890909 37.774632 
L 41.940496 37.400001 
L 43.990083 37.053645 
L 46.039669 36.735562 
L 48.089256 36.445754 
L 50.138843 36.184219 
L 52.18843 35.950959 
L 54.238017 35.745973 
L 56.287603 35.56926 
L 58.33719 35.420822 
L 60.386777 35.300657 
L 62.436364 35.208767 
L 64.48595 35.14515 
L 66.535537 35.109808 
L 68.585124 35.102739 
L 70.634711 35.123945 
L 72.684298 35.173424 
L 74.733884 35.251178 
L 76.783471 35.357205 
L 78.833058 35.491507 
L 80.882645 35.654082 
L 82.932231 35.844932 
L 84.981818 36.064055 
L 87.031405 36.311452 
L 89.080992 36.587124 
L 91.130579 36.891069 
L 93.180165 37.223289 
L 95.229752 37.583782 
L 97.279339 37.972549 
L 99.328926 38.389591 
L 101.378512 38.834906 
L 103.428099 39.308496 
L 105.477686 39.810359 
L 107.527273 40.340496 
L 109.57686 40.898908 
L 111.626446 41.485593 
L 113.676033 42.100552 
L 115.72562 42.743786 
L 117.775207 43.415293 
L 119.824793 44.115074 
L 121.87438 44.84313 
L 123.923967 45.599459 
L 125.973554 46.384062 
L 128.02314 47.19694 
L 130.072727 48.038091 
L 132.122314 48.907516 
L 134.171901 49.805215 
L 136.221488 50.731189 
L 138.271074 51.685436 
L 140.320661 52.667957 
L 142.370248 53.678752 
L 144.419835 54.717822 
L 146.469421 55.785165 
L 148.519008 56.880782 
L 150.568595 58.004673 
L 152.618182 59.156838 
L 154.667769 60.337278 
L 156.717355 61.545991 
L 158.766942 62.782978 
L 160.816529 64.048239 
L 162.866116 65.341774 
L 164.915702 66.663584 
L 166.965289 68.013667 
L 169.014876 69.392024 
L 171.064463 70.798655 
L 173.11405 72.23356 
L 175.163636 73.696739 
L 177.213223 75.188192 
L 179.26281 76.707919 
L 181.312397 78.255921 
L 183.361983 79.832196 
L 185.41157 81.436745 
L 187.461157 83.069568 
L 189.510744 84.730665 
L 191.560331 86.420036 
L 193.609917 88.137681 
L 195.659504 89.8836 
L 197.709091 91.657793 
L 199.758678 93.46026 
L 201.808264 95.291001 
L 203.857851 97.150016 
L 205.907438 99.037305 
L 207.957025 100.952868 
L 210.006612 102.896705 
L 212.056198 104.868816 
L 214.105785 106.869201 
L 216.155372 108.89786 
L 218.204959 110.954793 
L 220.254545 113.04 
" clip-path="url(#p90661e30ff)" style="fill: none; stroke: #4169e1; stroke-width: 10; stroke-linecap: square"/>
   </g>
  </g>
 </g>
 <defs>
  <clipPath id="p90661e30ff">
   <rect x="7.2" y="7.2" width="223.2" height="110.88"/>
  </clipPath>
 </defs>
</svg>
